<svg viewBox="0 0 172 40" xmlns="http://www.w3.org/2000/svg"><path d="M2.82 30.203H1.066c-.089 0-.148.06-.148.148v6.597c0 .089.06.148.148.148h1.752c2.373 0 3.604-1.517 3.604-3.446 0-1.94-1.23-3.447-3.604-3.447Zm0 5.928h-.828v-4.963h.827c1.684 0 2.521.926 2.521 2.482 0 1.545-.837 2.48-2.52 2.48ZM14.678 36.13h-2.59v-2.156h2.423c.088 0 .147-.059.147-.147v-.67c0-.088-.059-.147-.147-.147h-2.423v-1.842h2.58c.089 0 .148-.059.148-.147v-.67c0-.088-.06-.148-.148-.148h-3.505c-.089 0-.148.06-.148.148v6.597c0 .089.06.148.148.148h3.515c.089 0 .148-.06.148-.148v-.67c0-.088-.06-.147-.148-.147ZM20.528 31.986c0-.532.433-.867 1.063-.867.542 0 .935.217 1.398.62.07.06.138.05.207-.02l.404-.472c.059-.079.059-.138 0-.207-.522-.56-1.231-.915-2.029-.915-1.132 0-2.077.728-2.077 1.84 0 2.246 3.387 1.822 3.387 3.25 0 .581-.522 1.004-1.25 1.004-.66 0-1.143-.305-1.586-.718-.069-.07-.148-.07-.207-.01l-.443.472c-.069.06-.069.128-.02.197a2.907 2.907 0 0 0 2.246 1.064c1.21 0 2.313-.788 2.313-1.98 0-2.362-3.406-1.85-3.406-3.258ZM28.525 30.351v6.597c0 .089.059.148.147.148h.778c.089 0 .148-.06.148-.148v-6.597c0-.088-.06-.148-.148-.148h-.778c-.088 0-.147.06-.147.148ZM40.73 33.384h-2.904c-.09 0-.148.059-.148.147v.64c0 .09.059.148.148.148h2.018c-.04 1.063-.847 1.851-2.107 1.851-1.379 0-2.422-1.083-2.422-2.52 0-1.408 1.073-2.482 2.402-2.482.68 0 1.231.256 1.684.64.069.06.148.07.207 0l.492-.512c.06-.069.06-.147-.01-.206-.62-.581-1.428-.965-2.363-.965-1.96 0-3.505 1.565-3.505 3.525 0 1.989 1.536 3.574 3.525 3.574 1.96 0 3.13-1.428 3.13-3.23v-.463c0-.088-.058-.147-.147-.147ZM50.636 30.203h-.778c-.088 0-.148.06-.148.148v5.12l-2.983-5.17c-.04-.068-.098-.098-.177-.098h-.955a.141.141 0 0 0-.128.148v6.597c0 .089.059.148.148.148h.777c.089 0 .148-.06.148-.148v-5.11l2.983 5.16c.04.068.099.098.178.098h.945c.078 0 .138-.06.138-.148v-6.597c0-.088-.06-.148-.148-.148ZM65.523 36.13h-2.589v-2.156h2.422c.089 0 .148-.059.148-.147v-.67c0-.088-.06-.147-.148-.147h-2.422v-1.842h2.58c.088 0 .147-.059.147-.147v-.67c0-.088-.059-.148-.147-.148h-3.505c-.09 0-.148.06-.148.148v6.597c0 .089.059.148.148.148h3.514c.09 0 .148-.06.148-.148v-.67c0-.088-.059-.147-.148-.147ZM81.867 35.54c-.06-.069-.138-.069-.207-.01a2.493 2.493 0 0 1-1.684.64c-1.329 0-2.402-1.073-2.402-2.49 0-1.438 1.073-2.512 2.402-2.512.68 0 1.231.256 1.684.64.069.06.148.07.207 0l.492-.512c.06-.069.06-.147-.01-.206-.62-.581-1.427-.965-2.363-.965-1.96 0-3.505 1.565-3.505 3.554 0 1.97 1.546 3.545 3.505 3.545.936 0 1.743-.394 2.363-.965.07-.07.07-.138.01-.207l-.492-.512ZM90.073 37.224a3.532 3.532 0 0 0 3.525-3.545 3.534 3.534 0 0 0-3.525-3.554 3.536 3.536 0 0 0-3.534 3.554 3.534 3.534 0 0 0 3.534 3.545Zm0-1.024c-1.388 0-2.471-1.113-2.471-2.52 0-1.419 1.083-2.531 2.471-2.531 1.379 0 2.462 1.112 2.462 2.53 0 1.408-1.083 2.52-2.462 2.52ZM103.405 30.203h-.778c-.089 0-.148.06-.148.148v5.12l-2.983-5.17c-.04-.068-.099-.098-.177-.098h-.956a.141.141 0 0 0-.128.148v6.597c0 .089.06.148.148.148h.778c.088 0 .148-.06.148-.148v-5.11l2.983 5.16c.039.068.098.098.177.098h.945c.079 0 .138-.06.138-.148v-6.597c0-.088-.059-.148-.147-.148ZM109.325 31.986c0-.532.433-.867 1.063-.867.542 0 .935.217 1.398.62.069.06.138.05.207-.02l.404-.472c.059-.079.059-.138 0-.207-.522-.56-1.231-.915-2.029-.915-1.132 0-2.077.728-2.077 1.84 0 2.246 3.387 1.822 3.387 3.25 0 .581-.522 1.004-1.251 1.004-.659 0-1.142-.305-1.585-.718-.069-.07-.147-.07-.206-.01l-.444.472c-.068.06-.068.128-.019.197a2.907 2.907 0 0 0 2.245 1.064c1.211 0 2.313-.788 2.313-1.98 0-2.362-3.406-1.85-3.406-3.258ZM121.1 30.203h-4.126c-.088 0-.147.06-.147.148v.67c0 .088.059.147.147.147h1.527v5.78c0 .089.059.148.147.148h.778c.089 0 .148-.06.148-.148v-5.78h1.526c.089 0 .148-.059.148-.147v-.67c0-.088-.059-.148-.148-.148ZM130.458 36.919l-1.625-2.432c1.004-.276 1.546-1.074 1.546-2.088 0-1.27-.847-2.196-2.402-2.196h-1.95c-.089 0-.148.06-.148.148v6.597c0 .089.059.148.148.148h.778c.088 0 .148-.06.148-.148v-2.353h.817l1.575 2.402c.04.07.099.099.177.099h.837c.118 0 .168-.07.099-.177Zm-3.505-5.75h.984c.748 0 1.408.314 1.408 1.23 0 .906-.66 1.23-1.408 1.23h-.984v-2.46ZM139.917 30.203h-.778c-.089 0-.148.06-.148.148v4.067c0 1.191-.59 1.772-1.477 1.772-.876 0-1.467-.581-1.467-1.772V30.35c0-.088-.059-.148-.147-.148h-.778c-.089 0-.148.06-.148.148v4.067c0 1.831 1.073 2.806 2.54 2.806 1.477 0 2.551-.975 2.551-2.806V30.35c0-.088-.059-.148-.148-.148ZM150.03 35.54c-.06-.069-.138-.069-.207-.01a2.495 2.495 0 0 1-1.684.64c-1.329 0-2.402-1.073-2.402-2.49 0-1.438 1.073-2.512 2.402-2.512.679 0 1.231.256 1.684.64.069.06.147.07.207 0l.492-.512c.059-.069.059-.147-.01-.206-.62-.581-1.428-.965-2.363-.965-1.959 0-3.505 1.565-3.505 3.554 0 1.792 1.29 3.269 3.003 3.505l-.325.325c-.03.04-.049.07-.049.118v.375c0 .069.049.098.118.069.472-.168.837-.01.837.226 0 .266-.306.394-.847.335-.069 0-.108.04-.108.098v.364c0 .06.029.099.088.109.778.118 1.615-.118 1.615-.965 0-.473-.414-.748-.837-.788l.246-.236c.837-.06 1.556-.433 2.127-.955.069-.07.069-.138.01-.207l-.492-.512ZM156.088 28.933h.227c.059 0 .088-.03.108-.078a.47.47 0 0 1 .443-.296c.522 0 .758.67 1.506.67.473 0 .877-.286.916-.877 0-.059-.039-.098-.098-.098h-.227c-.059 0-.088.03-.108.079a.444.444 0 0 1-.433.295c-.522 0-.758-.67-1.487-.67-.502 0-.886.276-.935.857-.01.079.029.118.088.118Zm4.46 7.995-2.412-6.606a.18.18 0 0 0-.177-.119h-.748a.182.182 0 0 0-.178.119l-2.402 6.606c-.039.099.01.168.118.168h.798c.078 0 .138-.03.167-.118l.463-1.34h2.826l.462 1.34c.03.088.089.118.168.118h.797c.109 0 .158-.07.118-.168Zm-4.046-2.215 1.083-3.14 1.093 3.14h-2.176ZM167.899 37.224a3.532 3.532 0 0 0 3.525-3.545 3.534 3.534 0 0 0-3.525-3.554 3.536 3.536 0 0 0-3.534 3.554 3.534 3.534 0 0 0 3.534 3.545Zm0-1.024c-1.388 0-2.471-1.113-2.471-2.52 0-1.419 1.083-2.531 2.471-2.531 1.379 0 2.462 1.112 2.462 2.53 0 1.408-1.083 2.52-2.462 2.52ZM18.35 14.984c-.493 0-.875.059-1.145.176-.27.118-.47.288-.6.511-.129.224-.211.5-.246.829-.024.329-.036.7-.036 1.11v5.518a11.19 11.19 0 0 1-3.067 1.234 13.4 13.4 0 0 1-3.296.405c-1.375 0-2.668-.205-3.878-.617-1.21-.411-2.268-1.004-3.173-1.78a8.654 8.654 0 0 1-2.133-2.891C.259 18.339 0 17.04 0 15.583c0-1.34.24-2.597.723-3.772A9.626 9.626 0 0 1 2.75 8.743a9.193 9.193 0 0 1 3.032-2.062c1.175-.505 2.439-.758 3.79-.758.682 0 1.31.059 1.886.176.588.118 1.099.247 1.534.388a9.2 9.2 0 0 1 1.075.37c.282.118.47.177.564.177a.408.408 0 0 0 .3-.124.941.941 0 0 0 .212-.317c.058-.118.1-.235.123-.353a8.68 8.68 0 0 0 .053-.317h.458l.476 5.659h-.476a9.61 9.61 0 0 0-.881-1.957 6.026 6.026 0 0 0-1.252-1.498 5.05 5.05 0 0 0-1.675-.97c-.634-.223-1.351-.335-2.15-.335-1.175 0-2.186.23-3.032.688a6.19 6.19 0 0 0-2.098 1.833 8.077 8.077 0 0 0-1.234 2.626 11.987 11.987 0 0 0-.388 3.05c0 1.046.135 2.092.406 3.138a9.565 9.565 0 0 0 1.269 2.838A7.065 7.065 0 0 0 6.91 23.04c.87.517 1.904.775 3.103.775.646 0 1.28-.076 1.903-.229a7.08 7.08 0 0 0 1.799-.74V17.61c0-.493-.024-.904-.07-1.234-.048-.329-.154-.593-.318-.793-.165-.2-.4-.34-.705-.423-.306-.094-.723-.153-1.252-.176v-.476h6.98v.476ZM36.75 24.327H22.896v-.512c.564 0 1.01-.035 1.34-.105.34-.07.6-.2.776-.388.176-.2.293-.47.352-.811.059-.353.088-.805.088-1.357V9.414c0-.565-.023-1.017-.07-1.358-.047-.34-.159-.605-.335-.793-.176-.188-.435-.312-.776-.37-.34-.071-.799-.106-1.375-.106V6.31h13.856l.211 3.93h-.493c-.153-.575-.3-1.05-.44-1.427-.13-.388-.312-.693-.547-.917-.224-.223-.535-.382-.935-.476-.387-.094-.916-.14-1.586-.14H27.99v7.121h3.966c.552 0 .993-.035 1.322-.106.341-.082.611-.217.811-.405.212-.2.364-.464.458-.793a8.15 8.15 0 0 0 .265-1.305h.493v6.293h-.493a8.15 8.15 0 0 0-.265-1.304c-.094-.34-.24-.611-.44-.811-.2-.212-.47-.358-.811-.44-.33-.083-.776-.124-1.34-.124H27.99v5.923c0 .352.006.658.017.917.024.246.083.452.177.616a.962.962 0 0 0 .458.37c.2.083.488.124.864.124h3.032c.787 0 1.434-.064 1.939-.194.505-.13.94-.335 1.304-.617a4.3 4.3 0 0 0 1.005-1.093c.294-.458.623-1.005.987-1.64h.564l-1.586 4.514ZM34.266.793c0 .306-.105.57-.317.794a4.486 4.486 0 0 1-.758.599l-3.931 2.468h-1.093l3.755-3.79c.223-.224.47-.423.74-.6.27-.176.57-.264.9-.264a.59.59 0 0 1 .51.247c.13.164.194.346.194.546ZM61.814 6.787c-.564 0-1.016.035-1.357.106-.34.07-.605.205-.793.405-.177.188-.294.452-.353.793-.047.341-.07.782-.07 1.322V24.61h-.459L46.866 10.1v11.088c0 .564.023 1.016.07 1.357.06.341.177.605.353.794.176.188.435.317.776.387.34.06.793.088 1.357.088v.512h-6.276v-.512c.564 0 1.011-.035 1.34-.105.34-.07.6-.2.776-.388.176-.2.294-.47.352-.811.059-.34.088-.781.088-1.322V8.655c-.223-.305-.434-.57-.634-.793a2.867 2.867 0 0 0-.617-.582 2.175 2.175 0 0 0-.758-.37 3.688 3.688 0 0 0-1.023-.123V6.31h4.407l11.018 13.503v-10.4c0-.541-.03-.982-.088-1.323-.059-.34-.182-.605-.37-.793-.177-.2-.435-.335-.776-.405-.33-.071-.776-.106-1.34-.106V6.31h6.293v.476ZM66.465 24.327v-.512c.575 0 1.034-.035 1.375-.105.34-.083.599-.218.775-.406.177-.2.288-.47.335-.81.047-.353.07-.8.07-1.34V9.484c0-.552-.023-1-.07-1.34-.047-.352-.159-.629-.335-.828-.176-.2-.435-.335-.775-.406-.341-.082-.8-.123-1.375-.123V6.31h7.72v.476c-.563 0-1.016.04-1.357.123-.34.07-.605.206-.793.406-.176.2-.294.476-.352.828-.06.34-.089.788-.089 1.34v11.67c0 .54.024.987.07 1.34.06.34.177.61.353.81.177.188.435.323.776.406.34.07.805.105 1.393.105v.512h-7.721ZM97.046 15.23c0 1.282-.212 2.498-.635 3.65a9.554 9.554 0 0 1-1.798 3.05 8.49 8.49 0 0 1-2.785 2.08c-1.081.505-2.292.757-3.632.757-1.34 0-2.556-.252-3.649-.758a8.644 8.644 0 0 1-2.785-2.044A9.263 9.263 0 0 1 80 18.933a10.82 10.82 0 0 1-.617-3.667c0-1.305.218-2.521.653-3.65a8.945 8.945 0 0 1 1.868-2.96 8.621 8.621 0 0 1 2.856-1.993c1.105-.493 2.321-.74 3.649-.74 1.304 0 2.486.253 3.543.758a8.149 8.149 0 0 1 2.715 2.027 8.935 8.935 0 0 1 1.763 2.962c.411 1.128.617 2.315.617 3.56Zm-3.032.177c0-.658-.036-1.328-.106-2.01a11.94 11.94 0 0 0-.335-1.974 8.706 8.706 0 0 0-.67-1.78 5.27 5.27 0 0 0-1.075-1.446 4.716 4.716 0 0 0-1.57-.97c-.61-.246-1.321-.37-2.132-.37-.752 0-1.416.124-1.992.37a4.689 4.689 0 0 0-1.48.97 5.463 5.463 0 0 0-1.058 1.446 9.641 9.641 0 0 0-.688 1.762 12.391 12.391 0 0 0-.353 1.904c-.07.647-.105 1.275-.105 1.886 0 .6.035 1.228.105 1.886.071.659.194 1.305.37 1.94.177.634.406 1.24.688 1.815a5.837 5.837 0 0 0 1.058 1.516c.423.435.922.782 1.498 1.04.576.259 1.24.388 1.992.388.788 0 1.475-.117 2.063-.352a4.918 4.918 0 0 0 1.55-.952 5.367 5.367 0 0 0 1.076-1.428 8.293 8.293 0 0 0 .688-1.745c.176-.623.3-1.264.37-1.922.07-.67.106-1.328.106-1.974ZM115.27 24.327l-6.1-8.409c-.341.035-.693.053-1.057.053h-.441l-.423-.035v5.218c0 .552.029 1.004.088 1.357.07.34.2.611.388.81.188.189.452.318.793.389.353.07.811.105 1.375.105v.512h-7.721v-.512c.576 0 1.034-.035 1.375-.105.341-.07.599-.2.776-.388.176-.2.287-.47.334-.811.047-.353.071-.805.071-1.357V9.484c0-.564-.024-1.017-.071-1.357-.047-.353-.158-.63-.334-.829-.177-.2-.435-.335-.776-.405-.341-.071-.799-.106-1.375-.106V6.31h6.787c.517 0 1.057.017 1.621.053.565.035 1.111.111 1.64.229.54.117 1.052.282 1.534.493.481.2.904.476 1.269.829.364.34.652.758.864 1.252.211.493.317 1.08.317 1.762 0 .694-.112 1.299-.335 1.816a3.993 3.993 0 0 1-.934 1.34c-.388.364-.852.67-1.393.916a8.903 8.903 0 0 1-1.745.547l3.684 5.2c.329.458.646.864.952 1.216.306.353.635.659.987.917.353.259.741.47 1.164.635.434.153.94.252 1.516.3v.51h-4.83Zm-2.028-13.186a4.19 4.19 0 0 0-.282-1.569 3.277 3.277 0 0 0-.811-1.199c-.34-.34-.752-.599-1.234-.775a4.188 4.188 0 0 0-1.568-.282c-.341 0-.688.023-1.041.07-.34.047-.693.1-1.057.159v7.474c.082.012.188.024.317.035h.441c.646 0 1.281-.064 1.904-.194a5.388 5.388 0 0 0 1.674-.634 3.654 3.654 0 0 0 1.199-1.199c.306-.505.458-1.134.458-1.886ZM137.9 24.327h-13.855v-.512c.564 0 1.01-.035 1.339-.105.341-.07.6-.2.776-.388.176-.2.294-.47.353-.811.058-.353.088-.805.088-1.357V9.414c0-.565-.024-1.017-.071-1.358-.047-.34-.158-.605-.335-.793-.176-.188-.434-.312-.775-.37-.341-.071-.799-.106-1.375-.106V6.31H137.9l.212 3.93h-.494a15.261 15.261 0 0 0-.44-1.427c-.13-.388-.312-.693-.547-.917-.223-.223-.535-.382-.934-.476-.388-.094-.917-.14-1.587-.14h-4.971v7.121h3.967c.552 0 .993-.035 1.322-.106.34-.082.611-.217.811-.405.211-.2.364-.464.458-.793.106-.341.194-.776.264-1.305h.494v6.293h-.494a8.067 8.067 0 0 0-.264-1.304c-.094-.34-.241-.611-.441-.811-.2-.212-.47-.358-.811-.44-.329-.083-.775-.124-1.339-.124h-3.967v5.923c0 .352.006.658.018.917.023.246.082.452.176.616a.967.967 0 0 0 .458.37c.2.083.488.124.864.124h3.032c.788 0 1.434-.064 1.939-.194.506-.13.941-.335 1.305-.617a4.305 4.305 0 0 0 1.005-1.093 41.51 41.51 0 0 0 .987-1.64h.564l-1.587 4.514ZM144.366 24.327v-.512c.576 0 1.035-.035 1.375-.105.341-.083.6-.218.776-.406.176-.2.288-.47.335-.81.047-.353.07-.8.07-1.34V9.484c0-.552-.023-1-.07-1.34-.047-.352-.159-.629-.335-.828-.176-.2-.435-.335-.776-.406-.34-.082-.799-.123-1.375-.123V6.31h7.721v.476c-.564 0-1.016.04-1.357.123-.341.07-.605.206-.793.406-.177.2-.294.476-.353.828-.059.34-.088.788-.088 1.34v11.67c0 .54.024.987.071 1.34.058.34.176.61.352.81.176.188.435.323.776.406.341.07.805.105 1.392.105v.512h-7.721ZM170.029 19.708c0 .788-.158 1.493-.476 2.116a4.915 4.915 0 0 1-1.269 1.586 5.596 5.596 0 0 1-1.798 1.005 6.447 6.447 0 0 1-2.115.352c-.482 0-.964-.058-1.446-.176a19.5 19.5 0 0 1-1.375-.353l-1.163-.352c-.353-.118-.641-.176-.864-.176a.65.65 0 0 0-.37.105.819.819 0 0 0-.247.247 1.654 1.654 0 0 0-.141.335c-.035.13-.059.253-.071.37h-.476v-6.222h.476c.094.763.277 1.463.547 2.097.27.635.629 1.181 1.075 1.64.447.446.981.799 1.604 1.058.635.246 1.352.37 2.151.37.435 0 .864-.06 1.287-.177.435-.129.817-.317 1.146-.564.34-.247.617-.552.828-.916.212-.376.317-.811.317-1.305 0-.517-.141-.981-.423-1.393a4.733 4.733 0 0 0-1.075-1.163 10.247 10.247 0 0 0-1.534-1.022c-.575-.33-1.163-.658-1.762-.988a37.757 37.757 0 0 1-1.746-1.04 9.377 9.377 0 0 1-1.533-1.198 6.16 6.16 0 0 1-1.093-1.463c-.27-.541-.406-1.152-.406-1.834 0-.74.141-1.398.423-1.974a4.528 4.528 0 0 1 1.164-1.48 5.003 5.003 0 0 1 1.657-.935 5.96 5.96 0 0 1 1.992-.335c.399 0 .805.053 1.216.159.412.105.799.223 1.164.352.376.118.717.23 1.022.335.306.106.558.159.758.159a.572.572 0 0 0 .353-.106c.094-.07.176-.153.246-.247.071-.106.124-.217.159-.335.047-.117.082-.223.106-.317h.511v6.205h-.511a6.976 6.976 0 0 0-.458-1.992 5.132 5.132 0 0 0-1.005-1.64 4.383 4.383 0 0 0-1.516-1.11c-.588-.282-1.258-.423-2.01-.423-.399 0-.787.065-1.163.194-.376.13-.717.317-1.023.564a2.86 2.86 0 0 0-.722.864c-.177.329-.265.705-.265 1.128 0 .494.141.94.423 1.34.282.4.652.77 1.111 1.11.47.341.999.67 1.586.987.588.306 1.187.623 1.798.952.623.318 1.228.659 1.816 1.023.588.364 1.111.77 1.569 1.216.47.447.846.946 1.128 1.498.282.541.423 1.164.423 1.87Z"/></svg>